<svg width="100" height="100" viewBox="0 0 100 100" fill="none" xmlns="http://www.w3.org/2000/svg">
<g clip-path="url(#clip0_15_206)">
<path d="M57.4244 48.6358C57.1528 47.8883 56.4203 47.4655 55.6372 47.604C51.5293 48.2911 38.9904 51.0298 34.0012 59.7728C29.9272 66.8291 31.92 75.6583 38.4683 79.439C45.0165 83.2196 53.65 80.5466 57.724 73.4903C62.6987 64.9077 58.8595 52.5443 57.4244 48.6358Z" fill="#BFBFBF"/>
<path fill-rule="evenodd" clip-rule="evenodd" d="M55.1105 44.5237C57.3802 44.1308 59.5701 45.3983 60.3596 47.5636C61.1234 49.6447 62.5283 53.9714 63.0836 58.9649C63.6329 63.9042 63.4 69.9275 60.4289 75.0551C55.6055 83.4068 45.1381 86.8983 36.9057 82.1453C28.6705 77.3908 26.4758 66.5651 31.2908 58.2171C34.2642 53.0116 39.3482 49.7887 43.9001 47.8031C48.4918 45.8002 52.9244 44.8899 55.1105 44.5237Z" fill="#008DEF"/>
<path fill-rule="evenodd" clip-rule="evenodd" d="M91.5364 32.5528C92.0691 34.0043 93.0492 37.0205 93.4378 40.5153C93.8204 43.9557 93.679 48.2917 91.5097 52.0366C87.9989 58.1159 80.3123 60.7468 74.189 57.2115C68.0634 53.6748 66.5105 45.6934 70.0132 39.6186C72.1829 35.8214 75.8552 33.5231 79.0311 32.1378C82.2471 30.7349 85.3395 30.1005 86.8637 29.8451C88.881 29.4972 90.8345 30.6284 91.5364 32.5528Z" fill="#BFBFBF"/>
<path d="M32.71 19.624C32.4952 19.0329 31.9159 18.6984 31.2965 18.808C28.0477 19.3514 18.1309 21.5174 14.1851 28.432C10.963 34.0128 12.5391 40.9956 17.718 43.9856C22.8969 46.9757 29.7249 44.8616 32.947 39.2809C36.8814 32.4931 33.845 22.7152 32.71 19.624Z" fill="#BFBFBF"/>
<path fill-rule="evenodd" clip-rule="evenodd" d="M35.6457 18.5518C36.2595 20.2242 37.3886 23.7002 37.8357 27.7208C38.2769 31.6874 38.1033 36.6158 35.6522 40.8461C31.6806 47.7219 23.0188 50.6543 16.1559 46.692C9.29014 42.728 7.51207 33.7487 11.4752 26.8764C13.9269 22.5851 18.0945 19.9624 21.7531 18.3664C25.4517 16.7531 29.0144 16.0219 30.7708 15.7276C32.8766 15.3639 34.9131 16.5429 35.6457 18.5518Z" fill="#BFBFBF"/>
</g>
<defs>
<clipPath id="clip0_15_206">
<rect width="100" height="100" fill="white"/>
</clipPath>
</defs>
</svg>
