<svg width="100" height="100" viewBox="0 0 100 100" fill="none" xmlns="http://www.w3.org/2000/svg">
<path d="M50.2155 10.7721C51.5448 10.7722 52.8101 11.0464 53.9606 11.5407C58.1379 11.8072 61.444 15.2776 61.444 19.5221V66.3708C62.5997 67.9251 63.4387 69.7101 63.899 71.6217C64.5799 74.4496 64.4018 77.4227 63.3873 80.1452C62.5879 82.2903 61.2965 84.1994 59.6334 85.7233C58.541 87.0564 57.027 88.0286 55.2946 88.4391C53.6785 89.0757 51.952 89.4088 50.1998 89.4069C48.5511 89.405 46.9264 89.1061 45.3951 88.5378C43.1361 88.1478 41.2027 86.8117 40.0162 84.9508C38.721 83.5652 37.7022 81.9243 37.0328 80.1169C36.024 77.3923 35.8511 74.4188 36.5377 71.5924C36.9695 69.8153 37.729 68.1478 38.7653 66.6745V19.5221C38.7653 15.1937 42.2027 11.6705 46.4967 11.529C47.6402 11.0417 48.8961 10.7722 50.2155 10.7721ZM61.444 80.6569C61.444 80.7284 61.44 80.7997 61.4381 80.8708C61.6398 80.4653 61.8226 80.0487 61.9821 79.6208C62.892 77.1787 63.052 74.5111 62.441 71.9733C62.2107 71.0168 61.8753 70.096 61.444 69.2272V80.6569ZM38.7653 69.6989C38.4432 70.4188 38.1843 71.1709 37.9957 71.9469C37.3795 74.4834 37.5342 77.1513 38.4391 79.5954C38.5386 79.8642 38.6489 80.1281 38.7653 80.3883V69.6989Z" fill="#008DEF"/>
<path d="M55.8875 76.1226C55.8875 79.3176 53.3491 81.9077 50.2178 81.9077C47.0865 81.9077 44.5482 79.3176 44.5482 76.1226C44.5482 72.9276 47.0865 70.3375 50.2178 70.3375C53.3491 70.3375 55.8875 72.9276 55.8875 76.1226Z" fill="#BFBFBF"/>
<path fill-rule="evenodd" clip-rule="evenodd" d="M50.2178 38.5193C51.7834 38.5193 53.0526 39.8144 53.0526 41.4119V72.2659C53.0526 73.8634 51.7834 75.1584 50.2178 75.1584C48.6522 75.1584 47.383 73.8634 47.383 72.2659V41.4119C47.383 39.8144 48.6522 38.5193 50.2178 38.5193Z" fill="#BFBFBF"/>
</svg>
