<svg width="182" height="182" viewBox="0 0 182 182" fill="none" xmlns="http://www.w3.org/2000/svg">
<path fill-rule="evenodd" clip-rule="evenodd" d="M153.361 79.4274C159.284 87.6749 161.792 98.0093 158.949 109.389C173.038 112.464 180.877 125.152 180.135 137.345C179.717 144.215 176.595 151.012 170.439 155.854C164.333 160.657 155.746 163.157 144.961 162.578C139.648 162.576 132.451 162.486 124.772 162.39C109.36 162.197 92.0086 161.98 84.0661 162.404C70.058 163.152 58.8232 160.013 50.6895 154.2C42.5366 148.374 37.8373 140.085 36.6834 131.327C34.442 114.316 45.5554 96.781 67.1202 91.8304C71.2928 78.2354 79.8074 69.1406 90.2284 64.1562C101.107 58.9529 113.682 58.3961 124.97 61.1945C136.236 63.987 146.778 70.2623 153.361 79.4274Z" fill="#008DEF"/>
<path fill-rule="evenodd" clip-rule="evenodd" d="M35.4554 22.1407C38.3746 20.9809 41.6813 22.4071 42.8411 25.3262L46.1237 33.588C47.2836 36.5072 45.8574 39.8138 42.9383 40.9737C40.0191 42.1335 36.7124 40.7074 35.5526 37.7882L32.27 29.5264C31.1101 26.6073 32.5363 23.3006 35.4554 22.1407ZM78.5544 23.1429C81.4457 24.3707 82.7941 27.7098 81.5663 30.601L78.2836 38.3308C77.0558 41.222 73.7167 42.5705 70.8255 41.3427C67.9342 40.1148 66.5858 36.7757 67.8136 33.8845L71.0963 26.1547C72.3241 23.2635 75.6632 21.9151 78.5544 23.1429ZM44.8969 45.9842C56.7835 41.1901 69.8457 44.2986 78.3859 52.7823L83.4027 57.7659L77.0438 61.8654C70.1615 66.3023 65.2261 73.1925 63.2401 81.1366L62.328 84.785L58.1711 86.1707C52.1722 88.1703 46.6341 91.3501 41.883 95.5228L36.7581 100.024L33.0088 95.6945C30.7593 93.097 28.9043 90.0857 27.569 86.725C21.1958 70.6845 28.9092 52.4324 44.8969 45.9842ZM4.92131 52.8183C6.16666 49.9346 9.51392 48.6065 12.3976 49.8518L20.0676 53.1642C22.9513 54.4095 24.2794 57.7568 23.0341 60.6405C21.7887 63.5242 18.4415 64.8523 15.5578 63.607L7.88781 60.2946C5.00411 59.0493 3.67596 55.702 4.92131 52.8183ZM22.3704 88.853C23.5453 91.7661 22.1362 95.0801 19.2231 96.255L11.3435 99.433C8.43041 100.608 5.11641 99.1989 3.94149 96.2858C2.76657 93.3727 4.17565 90.0587 7.08875 88.8837L14.9683 85.7057C17.8814 84.5308 21.1955 85.9399 22.3704 88.853Z" fill="#FFCC00"/>
</svg>
