<svg width="100" height="100" viewBox="0 0 100 100" fill="none" xmlns="http://www.w3.org/2000/svg">
<path fill-rule="evenodd" clip-rule="evenodd" d="M49.7656 54.751C51.3621 54.751 52.6562 56.0323 52.6562 57.6128V79.5536C52.6562 82.7147 55.2446 85.2773 58.4375 85.2773C61.6304 85.2773 64.2188 82.7147 64.2188 79.5536V78.4483C64.2188 76.8677 65.5129 75.5864 67.1094 75.5864C68.7058 75.5864 70 76.8677 70 78.4483V79.5536C70 85.8758 64.8233 91.001 58.4375 91.001C52.0517 91.001 46.875 85.8758 46.875 79.5536V57.6128C46.875 56.0323 48.1692 54.751 49.7656 54.751Z" fill="black"/>
<path fill-rule="evenodd" clip-rule="evenodd" d="M50.1524 15.625C51.6257 15.625 52.8201 16.8194 52.8201 18.2927V21.8496C52.8201 23.3229 51.6257 24.5173 50.1524 24.5173C48.6791 24.5173 47.4847 23.3229 47.4847 21.8496V18.2927C47.4847 16.8194 48.6791 15.625 50.1524 15.625Z" fill="black"/>
<path fill-rule="evenodd" clip-rule="evenodd" d="M35.5196 22.0925C40.1587 20.1709 45.1308 19.1819 50.1522 19.1819C55.1735 19.1819 60.1456 20.1709 64.7848 22.0925C69.4239 24.0141 73.639 26.8306 77.1897 30.3812C80.7403 33.9318 83.5568 38.147 85.4784 42.7861C86.4212 45.0625 87.1396 47.419 87.6268 49.8222C88.817 55.6936 83.825 60.0864 78.6075 60.0864L21.6969 60.0864C16.4793 60.0864 11.4874 55.6936 12.6776 49.8222C13.1647 47.419 13.8831 45.0625 14.826 42.7861C16.7476 38.147 19.5641 33.9318 23.1147 30.3812C26.6653 26.8306 30.8805 24.0141 35.5196 22.0925Z" fill="#008DEF"/>
</svg>
