<svg width="100" height="100" viewBox="0 0 100 100" fill="none" xmlns="http://www.w3.org/2000/svg">
<path fill-rule="evenodd" clip-rule="evenodd" d="M65.841 42.2994C65.841 35.8784 70.7733 30.3262 77.2616 30.3262C83.7048 30.3262 88.6822 35.8304 88.6822 42.2994C88.6822 48.7204 83.7499 54.2726 77.2616 54.2726H60.2195C58.6802 54.2726 57.4323 53.0248 57.4323 51.4854C57.4323 49.9461 58.6802 48.6983 60.2195 48.6983H65.841V42.2994Z" fill="#008DEF"/>
<path fill-rule="evenodd" clip-rule="evenodd" d="M35.8487 30.5726C35.8487 22.7391 41.6435 15.8333 49.4277 15.8333C57.159 15.8333 63.0066 22.6806 63.0066 30.5726C63.0066 38.4062 57.2119 45.3119 49.4277 45.3119H24.9155C23.3762 45.3119 22.1284 44.064 22.1284 42.5247C22.1284 40.9854 23.3762 39.7376 24.9155 39.7376H35.8487V30.5726Z" fill="#BFBFBF"/>
<path fill-rule="evenodd" clip-rule="evenodd" d="M35.8487 70.6774C35.8487 78.5109 41.6434 85.4167 49.4276 85.4167C57.159 85.4167 63.0066 78.5695 63.0066 70.6774C63.0066 62.8439 57.2118 55.9381 49.4276 55.9381H15.2872C13.7479 55.9381 12.5 57.186 12.5 58.7253C12.5 60.2646 13.7479 61.5124 15.2872 61.5124H35.8487V70.6774Z" fill="#BFBFBF"/>
</svg>
